HIERARCHY
ROOT Hips
{
	OFFSET 0.00000 0.00000 0.00000
	CHANNELS 6 Xposition Yposition Zposition Zrotation Yrotation Xrotation 
	JOINT LHipJoint
	{
		OFFSET 0 0 0
		CHANNELS 3 Zrotation Yrotation Xrotation
		JOINT LeftUpLeg
		{
			OFFSET 1.57338 -1.94743 0.52196
			CHANNELS 3 Zrotation Yrotation Xrotation
			JOINT LeftLeg
			{
				OFFSET 2.60333 -7.15259 0.00000
				CHANNELS 3 Zrotation Yrotation Xrotation
				JOINT LeftFoot
				{
					OFFSET 2.77855 -7.63400 0.00000
					CHANNELS 3 Zrotation Yrotation Xrotation
					JOINT LeftToeBase
					{
						OFFSET 0.19847 -0.54529 2.28466
						CHANNELS 3 Zrotation Yrotation Xrotation
						End Site
						{
							OFFSET 0.00000 -0.00000 1.17993
						}
					}
				}
			}
		}
	}
	JOINT RHipJoint
	{
		OFFSET 0 0 0
		CHANNELS 3 Zrotation Yrotation Xrotation
		JOINT RightUpLeg
		{
			OFFSET -1.61527 -1.94743 0.52196
			CHANNELS 3 Zrotation Yrotation Xrotation
			JOINT RightLeg
			{
				OFFSET -2.53829 -6.97390 0.00000
				CHANNELS 3 Zrotation Yrotation Xrotation
				JOINT RightFoot
				{
					OFFSET -2.80762 -7.71387 0.00000
					CHANNELS 3 Zrotation Yrotation Xrotation
					JOINT RightToeBase
					{
						OFFSET -0.30536 -0.83898 2.28801
						CHANNELS 3 Zrotation Yrotation Xrotation
						End Site
						{
							OFFSET -0.00000 -0.00000 1.21323
						}
					}
				}
			}
		}
	}
	JOINT LowerBack
	{
		OFFSET 0 0 0
		CHANNELS 3 Zrotation Yrotation Xrotation
		JOINT Spine
		{
			OFFSET -0.04381 1.99497 -0.19778
			CHANNELS 3 Zrotation Yrotation Xrotation
			JOINT Spine1
			{
				OFFSET -0.01959 2.01295 -0.04372
				CHANNELS 3 Zrotation Yrotation Xrotation
				JOINT Neck
				{
					OFFSET 0 0 0
					CHANNELS 3 Zrotation Yrotation Xrotation
					JOINT Neck1
					{
						OFFSET -0.05459 1.76913 0.09708
						CHANNELS 3 Zrotation Yrotation Xrotation
						JOINT Head
						{
							OFFSET 0.09461 1.77368 -0.11172
							CHANNELS 3 Zrotation Yrotation Xrotation
							End Site
							{
								OFFSET 0.03812 1.78157 -0.04834
							}
						}
					}
				}
				JOINT LeftShoulder
				{
					OFFSET 0 0 0
					CHANNELS 3 Zrotation Yrotation Xrotation
					JOINT LeftArm
					{
						OFFSET 3.50922 1.24034 -0.28866
						CHANNELS 3 Zrotation Yrotation Xrotation
						JOINT LeftForeArm
						{
							OFFSET 5.40188 -0.00000 0.00000
							CHANNELS 3 Zrotation Yrotation Xrotation
							JOINT LeftHand
							{
								OFFSET 3.68559 -0.00000 0.00000
								CHANNELS 3 Zrotation Yrotation Xrotation
								JOINT LeftFingerBase
								{
									OFFSET 0 0 0
									CHANNELS 3 Zrotation Yrotation Xrotation
									JOINT LeftHandIndex1
									{
										OFFSET 0.61753 -0.00000 0.00000
										CHANNELS 3 Zrotation Yrotation Xrotation
										End Site
										{
											OFFSET 0.49787 -0.00000 0.00000
										}
									}
								}
								JOINT LThumb
								{
									OFFSET 0 0 0
									CHANNELS 3 Zrotation Yrotation Xrotation
									End Site
									{
										OFFSET 0.50547 -0.00000 0.50547
									}
								}
							}
						}
					}
				}
				JOINT RightShoulder
				{
					OFFSET 0 0 0
					CHANNELS 3 Zrotation Yrotation Xrotation
					JOINT RightArm
					{
						OFFSET -2.95373 1.39649 -0.27346
						CHANNELS 3 Zrotation Yrotation Xrotation
						JOINT RightForeArm
						{
							OFFSET -6.10670 -0.00000 -0.00000
							CHANNELS 3 Zrotation Yrotation Xrotation
							JOINT RightHand
							{
								OFFSET -3.63052 -0.00000 0.00000
								CHANNELS 3 Zrotation Yrotation Xrotation
								JOINT RightFingerBase
								{
									OFFSET 0 0 0
									CHANNELS 3 Zrotation Yrotation Xrotation
									JOINT RightHandIndex1
									{
										OFFSET -0.58385 -0.00000 0.00000
										CHANNELS 3 Zrotation Yrotation Xrotation
										End Site
										{
											OFFSET -0.47071 -0.00000 0.00000
										}
									}
								}
								JOINT RThumb
								{
									OFFSET 0 0 0
									CHANNELS 3 Zrotation Yrotation Xrotation
									End Site
									{
										OFFSET -0.47790 -0.00000 0.47790
									}
								}
							}
						}
					}
				}
			}
		}
	}
}
MOTION
Frames: 16
Frame Time: .0083333
-2.5698 18.2561 6.4119 8.6406 -15.3770 -1.7454 0.0000 0.0000 0.0000 -15.1513 -4.8418 -2.3602 2.1569 9.1855 26.3772 0.2396 5.9766 -13.3408 1.8691 -8.5880 -24.5147 0.0000 0.0000 0.0000 6.3023 25.4515 -9.6021 -4.3912 -12.6635 38.1216 -1.3999 -4.8187 -24.5466 -0.2423 3.1678 -8.7462 -1.9031 1.7269 8.0507 -1.0140 2.1133 2.8682 -0.1723 1.0468 -1.5754 -8.0362 -8.4456 -9.7882 12.5161 -11.0502 2.1888 4.3757 -5.1289 3.4123 -0.0000 0.0000 0.0000 -70.2111 2.2872 26.4301 19.5284 -30.0700 -5.2930 -0.0000 -0.0000 9.0745 27.5477 17.4764 8.9031 -7.1250 0.0000 -0.0000 -0.4087 49.5295 -0.0456 -0.0000 0.0000 0.0000 52.1493 45.0912 13.3951 -54.7196 54.7303 -29.9869 0.0000 0.0000 27.3285 -39.3685 -1.2424 1.0192 7.1250 -0.0000 -0.0000 -10.2137 -31.4837 -3.4238
-2.5985 18.2562 6.4035 8.7526 -15.5939 -1.8107 0.0000 0.0000 0.0000 -15.0618 -4.6658 -2.6421 2.2179 9.3059 26.7571 0.2180 5.8244 -12.8485 1.9267 -8.7116 -24.8973 0.0000 0.0000 0.0000 6.3064 25.6119 -9.6083 -4.4035 -12.6788 38.1777 -1.4082 -4.6814 -24.5354 -0.2243 3.0488 -8.4145 -1.8838 1.8094 8.1054 -1.0502 2.2216 2.8560 -0.2327 1.1011 -1.6174 -8.1170 -8.4680 -9.6517 12.4688 -11.0677 2.1102 4.3786 -5.1467 3.3695 0.0000 -0.0000 0.0000 -70.0135 1.8526 26.7381 19.1297 -29.5796 -5.0947 -0.0000 -0.0000 9.4078 27.5963 16.9961 8.6871 -7.1250 0.0000 -0.0000 -0.2802 49.0086 -0.0277 0.0000 -0.0000 0.0000 53.0808 45.1615 15.5119 -54.6250 54.6987 -29.9097 0.0000 0.0000 27.2719 -39.1008 -0.8278 0.6727 7.1250 -0.0000 -0.0000 -9.9499 -30.9559 -3.4609
-2.6274 18.2578 6.3891 8.8389 -15.6266 -1.8431 0.0000 0.0000 0.0000 -14.9323 -4.4710 -2.9741 2.2763 9.4193 27.1161 0.1857 5.6416 -12.1240 2.1282 -9.1281 -26.1968 0.0000 0.0000 0.0000 6.3315 25.6302 -9.6530 -4.4155 -12.6937 38.2324 -1.4007 -4.6968 -24.4857 -0.2235 3.0435 -8.3998 -1.8910 1.8189 8.2869 -1.0514 2.2268 2.7696 -0.2383 1.1050 -1.8071 -8.1941 -8.4857 -9.5470 12.3917 -11.0848 2.1282 4.3693 -5.1618 3.3586 0.0000 -0.0000 0.0000 -69.8364 1.5160 27.1412 18.7771 -29.1408 -4.9218 -0.0000 -0.0000 9.6190 27.1703 17.2827 8.6701 -7.1250 0.0000 -0.0000 -0.7480 49.2543 -0.0785 0.0000 -0.0000 0.0000 53.9902 45.2212 17.7768 -54.5857 54.6855 -29.8776 0.0000 0.0000 26.9954 -39.5554 -0.7665 0.6330 7.1250 -0.0000 -0.0000 -10.3006 -30.8775 -3.6061
-2.6532 18.2633 6.3820 9.0223 -15.7333 -1.9318 0.0000 0.0000 0.0000 -14.9652 -4.3527 -3.1924 2.3336 9.5288 27.4640 0.1563 5.5749 -11.5298 2.2248 -9.3195 -26.7998 0.0000 0.0000 0.0000 6.2477 25.6434 -9.6572 -4.4233 -12.7034 38.2680 -1.3923 -4.6886 -24.4161 -0.2233 3.0421 -8.3961 -1.9229 1.8350 8.3538 -1.1242 2.2417 2.7688 -0.2992 1.1126 -1.8433 -8.2399 -8.5048 -9.5650 12.4475 -11.1111 2.1610 4.3898 -5.1718 3.3803 0.0000 -0.0000 0.0000 -69.6657 1.0631 27.2707 18.4479 -28.7269 -4.7626 -0.0000 -0.0000 9.7075 26.1499 17.6570 8.4704 -7.1250 0.0000 -0.0000 -1.8223 49.4962 -0.2021 0.0000 -0.0000 0.0000 54.7478 45.4613 19.9280 -54.5914 54.6874 -29.8823 0.0000 0.0000 27.0075 -39.7996 -0.7090 0.5907 7.1250 -0.0000 -0.0000 -10.4852 -30.8037 -3.6916
-2.6818 18.2745 6.3825 9.3349 -15.9206 -2.0824 0.0000 0.0000 0.0000 -15.1574 -4.2910 -3.3191 2.3880 9.6313 27.7909 0.1349 5.5674 -11.1154 2.2353 -9.3399 -26.8645 0.0000 0.0000 0.0000 6.0319 25.6665 -9.6240 -4.4234 -12.7034 38.2683 -1.3888 -4.6077 -24.3447 -0.2280 3.0733 -8.4829 -2.1223 1.8964 8.3046 -1.2208 2.3069 2.8172 -0.2909 1.1443 -1.7704 -8.2077 -8.5250 -9.5846 12.4473 -11.1420 2.1716 4.3810 -5.1858 3.3880 -0.0000 -0.0000 0.0000 -69.5352 0.5586 27.2011 18.1543 -28.3543 -4.6223 -0.0000 -0.0000 9.9094 25.6445 17.5884 8.2542 -7.1250 0.0000 -0.0000 -2.3056 49.3392 -0.2468 -0.0000 -0.0000 0.0000 55.3476 45.8437 21.9371 -54.7179 54.7297 -29.9856 0.0000 0.0000 26.9732 -39.8320 -0.6564 0.5475 7.1250 -0.0000 -0.0000 -10.5038 -30.7363 -3.7155
-2.7124 18.2834 6.3793 9.4926 -16.1342 -2.2008 0.0000 0.0000 0.0000 -15.1532 -4.1988 -3.4547 2.4371 9.7226 28.0832 0.1150 5.5170 -10.6665 2.2489 -9.3664 -26.9484 0.0000 0.0000 0.0000 6.0121 25.7624 -9.5563 -4.4175 -12.6962 38.2415 -1.3896 -4.4878 -24.2854 -0.2294 3.0828 -8.5094 -2.2529 1.9578 8.3084 -1.2434 2.3771 2.8171 -0.2482 1.1790 -1.7775 -8.1924 -8.5348 -9.4346 12.4089 -11.1561 2.0915 4.3727 -5.2011 3.3376 0.0000 0.0000 0.0000 -69.4213 0.1387 27.1906 17.9206 -28.0554 -4.5119 -0.0000 -0.0000 10.0800 25.5852 17.8320 8.3414 -7.1250 0.0000 -0.0000 -2.4135 49.5935 -0.2735 0.0000 0.0000 0.0000 56.2616 46.3203 23.8308 -54.6731 54.7148 -29.9490 0.0000 0.0000 27.1392 -39.8161 -0.3646 0.3040 7.1250 -0.0000 -0.0000 -10.4522 -30.3627 -3.7917
-2.7405 18.2874 6.3728 9.4163 -16.4176 -2.2115 0.0000 0.0000 0.0000 -14.8868 -4.0387 -3.6712 2.4856 9.8117 28.3690 0.0916 5.4912 -10.1484 2.2880 -9.4419 -27.1877 0.0000 0.0000 0.0000 6.2342 26.0199 -9.4757 -4.4038 -12.6792 38.1792 -1.3895 -4.3829 -24.2278 -0.2091 2.9445 -8.1242 -2.0796 2.0516 8.3108 -1.2722 2.5143 2.7987 -0.3888 1.2480 -1.7911 -8.0327 -8.5827 -9.3708 12.3852 -11.2407 2.0800 4.3358 -5.2446 3.3221 0.0000 -0.0000 0.0000 -69.2012 -0.2844 27.2577 17.7545 -27.8417 -4.4340 -0.0000 -0.0000 10.2280 25.6646 17.9688 8.4319 -7.1250 0.0000 -0.0000 -2.3637 49.7546 -0.2772 0.0000 -0.0000 0.0000 57.4668 46.8870 25.3899 -54.4489 54.6395 -29.7661 0.0000 0.0000 27.6806 -39.8772 -0.1522 0.1271 7.1250 -0.0000 -0.0000 -10.4713 -30.0901 -3.8683
-2.7690 18.2960 6.3674 9.4930 -16.6383 -2.2142 0.0000 0.0000 0.0000 -14.7936 -3.8988 -3.9495 2.5372 9.9052 28.6702 0.0691 5.4996 -9.6544 2.3603 -9.5793 -27.6250 0.0000 0.0000 0.0000 6.2752 26.2351 -9.4231 -4.3801 -12.6497 38.0711 -1.3792 -4.3975 -24.1550 -0.1981 2.8662 -7.9066 -2.1147 2.1399 8.2565 -1.2855 2.6302 2.8017 -0.3921 1.3055 -1.7600 -8.0730 -8.6137 -9.4419 12.5539 -11.2908 2.1328 4.3850 -5.2600 3.3682 -0.0000 0.0000 0.0000 -69.0975 -0.8008 27.2684 17.5870 -27.6251 -4.3561 -0.0000 -0.0000 10.3450 25.7567 17.9631 8.4635 -7.1250 0.0000 -0.0000 -2.2716 49.7637 -0.2669 -0.0000 0.0000 0.0000 58.4129 47.6427 26.8208 -54.1872 54.5507 -29.5527 0.0000 0.0000 28.1023 -39.5782 1.1442 -0.9457 7.1250 -0.0000 -0.0000 -10.0648 -28.4379 -4.1157
-2.7950 18.3095 6.3660 9.5579 -16.7799 -2.2546 0.0000 0.0000 0.0000 -14.7307 -3.8075 -4.1165 2.5833 9.9879 28.9375 0.0463 5.5474 -9.1699 2.4400 -9.7279 -28.1001 0.0000 0.0000 0.0000 6.3378 26.2991 -9.3128 -4.3434 -12.6038 37.9030 -1.3623 -4.4896 -24.0727 -0.2024 2.8965 -7.9909 -2.0683 2.2014 8.2449 -1.3158 2.7152 2.7977 -0.4571 1.3481 -1.7549 -8.0416 -8.6592 -9.5741 12.6226 -11.3663 2.2685 4.3867 -5.2863 3.4410 0.0000 0.0000 0.0000 -69.0372 -1.2590 27.1825 17.4852 -27.4929 -4.3089 -0.0000 -0.0000 10.4289 25.6085 17.9926 8.4217 -7.1250 0.0000 -0.0000 -2.4240 49.7712 -0.2853 0.0000 0.0000 0.0000 59.2033 48.4191 28.2266 -54.1686 54.5444 -29.5376 0.0000 0.0000 28.2089 -38.4572 3.5603 -2.8235 7.1250 -0.0000 -0.0000 -8.8993 -25.4277 -4.2649
-2.8148 18.3221 6.3688 9.5083 -16.9151 -2.3074 0.0000 0.0000 0.0000 -14.6034 -3.7656 -4.1174 2.6133 10.0411 29.1098 0.0246 5.6573 -8.7561 2.4773 -9.7965 -28.3202 0.0000 0.0000 0.0000 6.5156 26.2549 -9.1330 -4.2974 -12.5459 37.6917 -1.3469 -4.4504 -23.9297 -0.2071 2.9297 -8.0832 -1.8200 2.2490 8.2887 -1.3403 2.7960 2.7659 -0.6316 1.3892 -1.7998 -7.8974 -8.7359 -9.7587 12.5588 -11.4959 2.5195 4.3218 -5.3379 3.5470 -0.0000 0.0000 0.0000 -68.9669 -1.5188 27.1600 17.5287 -27.5495 -4.3291 -0.0000 -0.0000 10.3041 26.2223 17.9327 8.6235 -7.1250 0.0000 -0.0000 -1.8052 49.8080 -0.2140 -0.0000 0.0000 0.0000 59.8945 49.1356 29.6599 -54.3306 54.5995 -29.6696 0.0000 0.0000 27.9551 -38.0475 3.8357 -2.9970 7.1250 -0.0000 -0.0000 -8.5600 -25.1087 -4.1631
-2.8381 18.3339 6.3697 9.4510 -17.1026 -2.3649 0.0000 0.0000 0.0000 -14.4425 -3.6929 -4.0852 2.6282 10.0674 29.1951 0.0069 5.7285 -8.3712 2.4382 -9.7247 -28.0896 0.0000 0.0000 0.0000 6.7143 26.2987 -8.9364 -4.2481 -12.4834 37.4642 -1.3342 -4.3736 -23.7877 -0.1980 2.8653 -7.9040 -1.6992 2.3053 8.3498 -1.3017 2.8792 2.7482 -0.6706 1.4310 -1.8483 -7.8586 -8.8070 -9.8773 12.5707 -11.6036 2.6526 4.3025 -5.3823 3.6158 -0.0000 -0.0000 0.0000 -68.9058 -1.8045 27.2021 17.5752 -27.6098 -4.3506 -0.0000 -0.0000 10.0639 27.5692 17.5251 8.9348 -7.1250 0.0000 -0.0000 -0.3958 49.5867 -0.0448 -0.0000 -0.0000 0.0000 60.6297 49.9368 30.9746 -54.4904 54.6535 -29.7999 0.0000 0.0000 28.2081 -39.1978 2.5924 -2.1124 7.1250 -0.0000 -0.0000 -9.5805 -26.6089 -4.3315
-2.8655 18.3481 6.3730 9.6264 -17.2912 -2.4860 0.0000 0.0000 0.0000 -14.5217 -3.5745 -3.9708 2.6125 10.0396 29.1050 -0.0161 5.8740 -7.9096 2.4306 -9.7106 -28.0447 0.0000 0.0000 0.0000 6.6744 26.3624 -8.7473 -4.2000 -12.4219 37.2414 -1.3160 -4.3452 -23.6271 -0.1968 2.8571 -7.8811 -1.8085 2.3686 8.3215 -1.3630 2.9538 2.7577 -0.6785 1.4680 -1.8251 -7.7703 -8.8596 -9.9445 12.6420 -11.6962 2.7376 4.2977 -5.4194 3.6616 -0.0000 0.0000 0.0000 -68.7911 -2.1233 27.1733 17.6397 -27.6933 -4.3805 -0.0000 -0.0000 9.7544 27.7288 17.4959 8.9803 -7.1250 0.0000 -0.0000 -0.2326 49.5814 -0.0263 -0.0000 0.0000 0.0000 61.5064 50.8637 32.1388 -54.5610 54.6772 -29.8575 0.0000 0.0000 28.8533 -40.6737 1.6680 -1.4329 7.1250 -0.0000 -0.0000 -10.8242 -27.7256 -4.6220
-2.8917 18.3626 6.3818 9.9597 -17.3672 -2.6287 0.0000 0.0000 0.0000 -14.7995 -3.4630 -3.7422 2.5522 9.9322 28.7574 -0.0463 6.1173 -7.3184 2.4987 -9.8355 -28.4458 0.0000 0.0000 0.0000 6.4517 26.3165 -8.5281 -4.1503 -12.3577 37.0095 -1.3124 -4.2923 -23.5695 -0.1945 2.8400 -7.8335 -2.0475 2.4000 8.1921 -1.4647 2.9777 2.7349 -0.6471 1.4798 -1.7837 -7.6676 -8.8945 -9.9902 12.6511 -11.7766 2.9596 4.2714 -5.4497 3.7387 -0.0000 -0.0000 0.0000 -68.6813 -2.3310 27.3525 17.7184 -27.7951 -4.4172 -0.0000 -0.0000 9.0957 26.8807 18.2114 9.0020 -7.1250 0.0000 -0.0000 -1.2063 50.2228 -0.1553 -0.0000 -0.0000 0.0000 62.2334 51.8420 33.3904 -54.4306 54.6333 -29.7511 0.0000 0.0000 28.9647 -41.1696 1.1815 -1.0330 7.1250 -0.0000 -0.0000 -11.2746 -28.3388 -4.6545
-2.9153 18.3825 6.4062 10.5822 -17.4136 -2.9530 0.0000 0.0000 0.0000 -15.4804 -3.4169 -3.2588 2.4797 9.8009 28.3343 -0.0703 6.4019 -6.9641 2.6269 -10.0651 -29.1877 0.0000 0.0000 0.0000 5.9280 26.1056 -8.1685 -4.0932 -12.2834 36.7422 -1.3152 -4.1296 -23.5039 -0.1962 2.8526 -7.8687 -2.4946 2.4201 7.9614 -1.6123 2.9757 2.7922 -0.5373 1.4772 -1.6113 -7.6621 -8.8858 -9.9811 12.7013 -11.7808 3.0643 4.2840 -5.4471 3.7724 -0.0000 -0.0000 0.0000 -68.6255 -2.5411 27.5138 17.7998 -27.9000 -4.4552 -0.0000 -0.0000 8.5433 26.4868 18.5398 9.0030 -7.1250 0.0000 -0.0000 -1.6654 50.5132 -0.2263 -0.0000 -0.0000 0.0000 62.8353 52.8702 34.6343 -54.3770 54.6152 -29.7074 0.0000 0.0000 28.7246 -40.8793 1.3939 -1.2062 7.1250 -0.0000 -0.0000 -11.0213 -28.0729 -4.6169
-2.9368 18.4037 6.4481 11.4040 -17.4923 -3.5239 0.0000 0.0000 0.0000 -16.4560 -3.3584 -2.5802 2.4545 9.7546 28.1857 -0.0831 6.6402 -6.9453 2.7930 -10.3522 -30.1250 0.0000 0.0000 0.0000 5.2658 25.7876 -7.5264 -4.0310 -12.2016 36.4488 -1.3288 -3.8857 -23.4839 -0.2074 2.9319 -8.0891 -3.0420 2.4741 7.7644 -1.8396 3.0130 2.9161 -0.4572 1.4921 -1.3896 -7.5699 -8.9103 -9.8966 12.6918 -11.8302 3.0736 4.2653 -5.4733 3.7604 -0.0000 0.0000 0.0000 -68.6016 -2.6828 27.4710 17.9341 -28.0726 -4.5182 -0.0000 -0.0000 8.4455 26.4629 18.6468 9.0430 -7.1250 0.0000 -0.0000 -1.7116 50.6255 -0.2373 -0.0000 0.0000 0.0000 63.5325 53.9019 35.7446 -54.4795 54.6498 -29.7910 0.0000 0.0000 28.4919 -40.6434 1.8288 -1.5692 7.1250 -0.0000 -0.0000 -10.7774 -27.5189 -4.6549
-2.9612 18.4222 6.4574 11.2203 -17.7253 -3.4811 0.0000 0.0000 0.0000 -16.2066 -3.2341 -2.4962 2.4395 9.7271 28.0975 -0.1042 6.8805 -6.5957 2.8930 -10.5197 -30.6767 0.0000 0.0000 0.0000 5.6089 25.9398 -7.2862 -3.9606 -12.1077 36.1142 -1.3055 -3.9636 -23.3375 -0.1997 2.8778 -7.9388 -2.7688 2.5344 7.7140 -1.8200 3.1143 2.8416 -0.5981 1.5447 -1.4273 -7.4702 -8.9909 -9.9319 12.7761 -11.9698 3.1943 4.2586 -5.5324 3.8167 -0.0000 0.0000 0.0000 -68.5310 -2.7817 27.4914 18.1228 -28.3142 -4.6074 -0.0000 -0.0000 8.0682 26.7819 18.6589 9.1732 -7.1250 0.0000 -0.0000 -1.3943 50.6942 -0.1957 -0.0000 0.0000 0.0000 64.2250 55.0485 36.7520 -54.6417 54.7042 -29.9233 0.0000 0.0000 28.0560 -40.5456 2.1041 -1.7990 7.1250 -0.0000 -0.0000 -10.6627 -27.1676 -4.6936
